{"glyphs":{":":{"x_min":0,"x_max":288,"ha":288,"o":"m 211 59 q 211 37 196 19 q 181 0 152 0 l 143 0 q 120 0 103 15 q 85 30 85 49 q 84 55 84 55 l 83 64 l 83 70 q 83 94 100 113 q 116 132 141 132 l 154 132 q 174 132 192 117 q 210 102 210 81 l 211 70 z m 211 398 l 211 382 q 210 378 210 376 q 210 353 191 339 q 171 325 152 325 l 142 325 q 121 325 103 340 q 85 355 85 377 l 83 391 l 83 395 q 83 419 99 438 q 115 457 141 457 l 156 457 q 181 457 196 438 q 211 419 211 398 z"},"$":{"x_min":0,"x_max":542,"ha":542,"o":"m 389 155 l 389 161 q 389 201 363 230 q 324 276 296 276 l 292 276 q 287 275 287 213 l 287 128 l 287 123 l 287 105 l 286 99 l 286 76 l 286 67 q 286 48 295 48 l 298 49 l 300 49 q 336 49 368 89 q 389 116 389 155 z m 150 523 l 150 515 q 150 479 174 451 q 213 407 240 407 q 245 407 245 416 l 245 431 l 244 434 l 244 490 l 244 496 l 244 511 q 244 613 237 613 l 234 613 l 232 613 q 204 613 177 586 q 150 559 150 523 z m 266 -74 q 250 -74 238 -44 q 226 -14 211 -4 q 196 7 150 21 q 105 35 91 48 q 62 75 62 132 q 62 167 80 167 q 99 167 120 132 q 142 97 154 86 q 183 62 215 62 q 235 62 242 94 q 245 110 245 187 q 245 264 233 284 q 221 304 173 333 q 125 361 98 397 q 70 433 70 493 q 70 552 116 600 q 145 630 193 647 l 208 652 q 232 660 235 662 q 245 668 251 694 q 257 720 271 720 l 280 720 q 285 720 299 698 q 313 675 365 651 q 417 627 428 614 q 447 591 447 543 q 447 520 428 520 q 423 520 389 562 q 355 604 320 604 q 302 604 297 576 q 292 549 292 462 q 292 411 310 393 q 317 386 352 365 q 387 345 390 343 q 479 285 479 196 q 479 60 339 15 q 308 5 299 -3 q 291 -10 285 -42 q 279 -74 266 -74 z"},"?":{"x_min":0,"x_max":461,"ha":461,"o":"m 218 116 q 235 116 250 98 q 265 80 265 55 l 265 50 q 265 24 249 8 q 233 -8 210 -8 l 195 -8 q 191 -7 189 -7 q 173 -7 157 9 q 141 25 141 47 l 141 60 q 141 82 156 100 q 171 118 197 118 l 208 118 q 214 116 218 116 z m 408 518 l 408 500 q 408 457 385 421 q 361 386 310 343 q 258 300 247 285 q 236 270 231 231 q 227 193 207 193 q 171 193 171 255 q 171 317 232 389 q 293 460 293 513 q 293 552 270 573 q 247 593 214 593 q 181 593 144 561 q 107 528 89 528 q 62 528 62 566 l 62 574 q 62 617 110 647 q 158 678 228 678 q 298 678 350 634 q 377 611 393 580 q 408 548 408 518 z"},"<":{"x_min":0,"x_max":561,"ha":561,"o":"m 496 512 l 496 504 q 496 475 458 450 q 436 436 294 360 q 151 285 151 284 q 151 282 292 208 q 432 134 464 113 q 496 92 496 64 q 496 36 485 36 q 473 36 452 48 q 432 60 358 99 l 181 191 q 90 240 85 242 q 58 259 58 284 q 58 310 88 326 q 463 530 480 530 l 487 530 q 496 530 496 512 z"},"'":{"x_min":0,"x_max":236,"ha":236,"o":"m 166 667 l 166 649 l 165 646 l 165 640 l 164 625 q 162 611 162 605 q 162 545 139 456 q 133 433 110 433 q 87 433 87 481 l 86 495 l 86 498 l 84 519 q 83 524 83 531 q 82 539 81 549 q 80 559 77 578 q 74 597 74 604 l 71 623 l 70 629 l 69 653 l 69 656 q 69 698 118 698 l 125 698 q 166 698 166 667 z"},"=":{"x_min":0,"x_max":569,"ha":569,"o":"m 516 209 l 516 194 q 516 167 495 167 l 469 167 l 459 168 l 417 168 l 406 168 l 234 168 l 224 168 l 165 168 l 154 167 l 118 167 l 87 167 l 72 167 q 53 167 53 189 l 53 205 q 53 232 79 232 l 89 232 l 94 231 l 487 232 l 492 232 q 516 232 516 209 z m 516 393 l 516 367 q 516 347 500 345 q 487 343 401 343 l 176 343 q 79 343 66 345 q 53 347 53 368 l 53 383 q 53 407 68 410 q 84 413 280 413 l 382 413 q 490 413 503 410 q 516 408 516 393 z"},"a":{"x_min":0,"x_max":497,"ha":497,"o":"m 303 203 q 303 228 287 228 l 285 227 l 282 227 q 244 227 182 193 q 141 170 141 125 l 141 111 q 141 89 157 71 q 173 53 199 53 l 205 53 l 208 53 q 240 53 270 79 q 299 105 299 132 q 301 142 301 149 l 302 155 l 303 178 z m 468 50 q 468 34 439 16 q 410 -1 381 -1 q 353 -1 330 18 q 308 38 302 38 q 295 38 249 15 q 203 -7 156 -7 q 109 -7 76 27 q 43 61 43 104 l 43 114 q 43 216 225 260 q 266 271 277 277 q 301 292 301 327 q 301 362 282 383 q 264 403 225 403 q 186 403 153 364 q 120 324 96 324 q 65 324 65 355 q 65 396 122 428 q 179 460 239 460 q 298 460 330 444 q 362 427 381 396 q 400 366 400 239 q 400 112 408 92 q 416 73 434 67 q 468 58 468 50 z"},"L":{"x_min":0,"x_max":596,"ha":596,"o":"m 142 0 q 61 0 61 23 q 61 33 82 52 q 104 70 112 94 q 120 118 120 202 l 121 231 q 122 261 122 275 l 123 304 l 123 423 q 123 557 116 582 q 109 607 78 625 q 47 643 47 660 q 47 674 100 674 l 114 674 l 129 673 l 186 673 q 263 673 285 670 q 307 667 307 649 q 307 643 282 623 q 258 603 250 577 q 235 532 235 439 l 234 410 l 234 293 q 234 131 245 103 q 256 75 275 67 q 294 59 327 59 q 404 59 455 86 q 478 99 512 139 q 547 179 560 179 q 572 179 572 157 q 572 99 554 40 q 548 20 537 14 q 515 2 365 2 l 290 1 l 200 0 z"},"3":{"x_min":0,"x_max":536,"ha":536,"o":"m 475 191 l 475 175 q 475 140 455 99 q 417 22 329 -7 q 282 -23 222 -23 q 163 -23 111 3 q 59 29 59 71 l 59 82 q 59 108 87 108 q 90 108 141 74 q 193 41 242 41 q 292 41 327 77 q 363 114 363 173 q 363 232 330 263 q 297 295 239 304 q 181 313 181 333 q 181 350 230 371 q 279 392 299 415 q 332 452 332 504 q 332 538 305 559 q 278 581 242 581 q 182 581 133 538 q 104 513 98 513 q 83 513 83 537 q 83 588 134 620 q 185 652 252 652 l 269 652 q 342 652 391 620 q 439 588 439 526 q 439 486 424 456 q 408 426 377 394 q 346 362 346 355 q 346 352 365 343 q 385 334 403 324 q 421 313 439 291 q 475 247 475 191 z"},";":{"x_min":0,"x_max":288,"ha":288,"o":"m 100 -130 l 97 -130 q 85 -130 85 -116 q 85 -111 113 -74 q 141 -37 141 -9 q 141 2 113 26 q 85 51 85 76 l 85 80 q 85 107 104 122 q 122 137 146 137 l 149 137 q 177 137 197 117 q 216 98 216 55 l 216 51 l 216 47 q 216 -5 188 -49 q 159 -93 134 -112 q 109 -130 100 -130 z m 149 459 l 151 459 q 182 459 197 441 q 213 422 213 396 l 213 389 q 213 365 197 346 q 181 328 156 328 l 143 328 q 137 329 127 329 q 118 329 101 345 q 85 362 85 389 l 85 397 l 85 400 q 85 402 85 404 l 87 412 q 87 432 106 446 q 126 459 149 459 z"},"J":{"x_min":0,"x_max":460,"ha":460,"o":"m 349 437 l 349 401 l 348 388 l 348 323 q 348 188 339 133 q 320 10 229 -40 q 185 -64 132 -64 l 121 -64 q 78 -64 43 -43 q 9 -21 9 11 l 9 21 q 9 38 19 51 q 30 64 47 64 q 63 64 87 46 q 111 28 123 28 q 155 28 177 60 q 199 91 218 158 q 236 224 236 378 q 236 532 228 563 q 219 594 197 612 q 162 642 162 650 q 162 674 267 674 l 292 674 l 305 673 q 416 673 416 656 q 416 647 392 625 q 368 603 362 588 q 350 557 350 480 l 349 467 q 349 454 349 437 z"},"V":{"x_min":0,"x_max":682,"ha":682,"o":"m 342 -3 q 310 -3 283 56 q 277 68 237 178 q 197 288 188 311 l 142 438 q 102 547 91 568 q 80 590 49 612 q 18 635 18 650 q 18 672 135 672 l 167 672 q 243 672 243 652 q 243 650 233 627 q 224 605 224 580 q 224 530 341 208 q 360 155 365 155 q 374 155 389 195 q 512 525 512 586 q 512 610 499 631 q 485 651 485 656 q 485 671 552 671 q 663 671 663 648 q 663 632 631 606 q 600 580 588 552 q 575 525 493 301 q 410 78 390 37 q 370 -3 342 -3 z"},"\"":{"x_min":0,"x_max":399,"ha":399,"o":"m 85 495 q 83 509 77 553 q 71 598 71 614 l 70 627 l 69 639 l 68 657 l 68 666 q 68 683 80 694 q 92 704 114 704 l 124 704 q 163 704 163 671 l 163 651 l 162 648 l 161 629 q 159 616 159 610 l 143 500 q 143 439 111 439 l 104 439 q 86 439 86 482 z m 282 704 l 292 704 q 331 704 331 672 l 331 654 l 329 629 q 327 615 327 607 l 310 487 q 310 439 280 439 l 276 439 q 254 439 254 481 l 253 494 q 251 508 251 516 q 250 525 250 530 q 249 535 248 542 q 248 548 246 559 q 245 569 245 575 l 241 601 q 239 613 239 617 l 239 620 l 238 623 l 236 650 l 236 671 q 236 683 248 694 q 260 704 282 704 z"},"7":{"x_min":0,"x_max":534,"ha":534,"o":"m 377 530 q 377 560 292 560 q 161 560 102 516 q 76 497 70 497 q 55 497 55 517 l 55 528 q 55 585 75 625 q 87 649 111 649 l 122 649 l 144 646 q 155 645 179 645 l 191 646 l 229 647 q 242 648 315 648 q 388 648 449 640 q 482 635 482 619 l 482 611 q 482 583 260 13 q 247 -20 210 -20 l 199 -20 q 173 -20 164 -5 q 159 1 159 21 q 159 78 268 287 q 377 496 377 530 z"},"S":{"x_min":0,"x_max":551,"ha":551,"o":"m 51 131 l 51 148 q 51 190 71 190 q 80 190 113 145 q 208 62 273 49 q 330 49 365 79 q 399 108 399 151 q 399 208 348 245 q 323 264 236 303 q 150 342 116 375 q 63 425 63 492 q 63 575 122 628 q 146 649 183 664 q 221 679 260 679 q 299 679 338 671 q 377 664 397 664 l 424 665 q 452 665 461 637 q 470 610 470 542 q 470 508 456 508 q 442 508 415 545 q 387 582 354 604 q 321 625 271 625 q 222 625 190 598 q 159 571 159 526 q 159 481 207 448 q 231 431 320 392 q 408 353 442 321 q 502 266 502 185 q 502 104 440 48 q 379 -7 289 -7 q 288 -7 287 -7 q 246 -7 193 3 q 141 14 133 14 l 119 13 l 105 12 q 76 12 63 42 q 51 72 51 131 z"},"}":{"x_min":0,"x_max":383,"ha":383,"o":"m 318 282 q 318 272 289 256 q 261 240 247 219 q 233 197 233 165 q 233 132 237 90 q 240 48 240 -4 q 240 -75 196 -115 q 152 -155 83 -155 q 62 -155 62 -146 q 62 -137 92 -113 q 122 -90 137 -61 q 152 -31 152 42 l 150 111 q 150 188 167 220 q 183 251 213 268 l 232 278 q 232 283 217 291 q 202 299 188 310 q 174 321 162 350 q 150 379 150 463 l 152 533 q 152 589 138 617 q 123 645 93 669 q 62 694 62 700 q 62 711 78 711 l 89 711 q 120 711 153 698 q 187 685 207 662 q 241 624 241 533 l 233 403 q 233 363 245 344 q 257 324 277 312 q 318 288 318 282 z"},"Z":{"x_min":0,"x_max":616,"ha":616,"o":"m 577 148 q 577 100 560 47 q 552 21 532 11 q 513 1 261 1 l 221 1 l 202 1 l 144 1 q 91 1 72 5 q 46 10 46 30 q 46 62 226 322 q 406 581 406 604 q 406 616 348 616 q 241 616 195 600 q 149 584 116 548 q 83 512 76 512 q 62 512 62 539 q 62 640 93 661 q 109 672 289 672 l 444 672 q 516 672 534 667 q 553 662 553 639 q 553 607 375 349 q 196 91 196 77 q 196 58 295 58 q 395 58 458 84 q 491 99 522 136 q 554 173 563 173 q 577 173 577 148 z"},"x":{"x_min":0,"x_max":530,"ha":530,"o":"m 346 402 q 346 411 339 424 q 332 438 332 438 q 332 460 416 460 l 445 460 q 485 460 485 447 q 485 431 455 410 q 424 390 408 372 q 324 279 324 256 q 324 232 401 130 q 435 87 448 74 q 461 61 481 48 q 500 35 500 25 q 500 10 483 6 q 465 1 387 1 q 309 1 309 24 q 309 24 312 36 q 315 48 315 63 q 315 79 284 125 q 253 170 247 170 q 236 170 204 128 q 171 86 171 60 q 171 51 178 34 q 185 18 185 16 q 185 0 106 0 l 77 0 q 27 0 27 16 q 27 31 60 51 q 92 70 119 101 q 205 197 205 218 q 205 239 125 344 q 95 384 79 398 q 36 437 36 437 q 36 459 112 459 l 157 460 l 186 460 q 228 460 228 443 l 220 411 q 220 387 260 328 q 275 306 283 306 q 291 306 318 341 q 346 377 346 402 z"},")":{"x_min":0,"x_max":358,"ha":358,"o":"m 290 286 l 290 264 q 289 206 273 142 q 239 2 148 -92 q 84 -159 57 -159 q 42 -159 42 -144 q 42 -142 91 -67 q 141 7 160 64 q 191 157 191 276 q 191 476 103 604 q 42 691 42 701 q 42 711 59 711 q 86 711 140 656 q 290 501 290 286 z"},"&":{"x_min":0,"x_max":748,"ha":748,"o":"m 145 213 l 145 204 q 145 145 186 99 q 228 54 289 54 l 293 55 q 325 55 361 74 q 396 93 396 113 l 396 117 q 396 138 315 234 q 234 330 228 330 l 221 330 q 195 330 170 289 q 145 248 145 213 z m 234 554 l 234 534 q 234 494 272 445 q 290 422 301 422 l 304 422 q 322 422 351 459 q 379 496 379 535 l 379 538 q 379 577 358 603 q 337 630 309 630 l 300 630 q 271 630 253 606 q 234 583 234 554 z m 573 23 q 554 23 502 36 q 450 50 434 50 q 419 50 355 27 q 291 4 241 4 q 154 4 101 54 q 48 103 48 170 l 48 187 q 48 225 68 260 q 87 295 134 336 q 180 377 180 402 q 180 410 172 429 q 163 448 155 471 q 146 495 146 536 q 146 592 191 629 q 236 666 293 666 q 351 666 390 633 q 430 600 430 545 q 430 509 399 450 q 368 390 368 364 q 368 337 402 297 q 436 256 467 256 q 497 256 513 284 q 518 292 528 322 q 538 352 540 364 q 542 376 549 383 q 556 390 587 390 q 657 390 657 372 q 657 364 631 337 q 605 311 592 286 q 555 217 555 181 q 555 146 587 114 q 608 93 640 81 q 672 69 672 63 q 672 57 657 47 q 623 23 573 23 z"},"_":{"x_min":0,"x_max":509,"ha":509,"o":"m 508 -85 l 508 -112 q 508 -127 472 -127 l 135 -127 l 130 -126 l 28 -126 l 12 -126 q 0 -126 0 -104 l 0 -93 q 0 -77 10 -75 q 20 -73 87 -73 l 211 -73 l 216 -73 l 261 -73 q 508 -73 508 -85 z"},"v":{"x_min":0,"x_max":520,"ha":520,"o":"m 15 432 q 15 459 82 459 l 128 459 q 201 459 201 436 l 200 431 q 191 401 191 387 q 191 328 264 150 q 276 121 281 121 q 286 121 299 154 q 372 331 372 385 q 372 403 368 410 q 365 417 359 427 q 354 438 354 441 q 354 459 398 459 l 434 459 q 501 459 501 442 q 501 424 474 400 q 447 376 439 359 q 431 342 424 324 q 417 306 406 278 l 374 198 q 312 45 306 34 q 286 -5 260 -5 q 234 -5 215 26 q 196 57 147 190 q 98 322 83 352 q 69 382 42 401 q 15 420 15 432 z"},"O":{"x_min":0,"x_max":745,"ha":745,"o":"m 181 357 l 181 329 q 181 267 198 212 q 231 106 300 64 q 335 43 376 43 l 384 43 q 418 43 453 63 q 524 103 554 223 q 565 269 565 329 l 565 338 q 565 403 550 458 q 520 566 455 608 q 416 633 379 633 l 364 633 q 328 633 293 612 q 223 570 196 470 q 181 414 181 357 z m 377 -12 l 366 -12 q 305 -12 247 12 q 189 37 147 85 q 105 133 83 195 q 60 256 60 322 l 60 345 q 60 410 84 475 q 107 540 151 588 q 241 688 374 688 l 396 688 q 450 688 506 663 q 562 638 606 590 q 649 542 670 479 q 692 416 692 354 l 692 343 q 692 189 599 85 q 557 40 499 14 q 441 -12 377 -12 z"},"(":{"x_min":0,"x_max":357,"ha":357,"o":"m 299 -159 q 272 -158 222 -105 q 122 -2 87 127 q 69 197 69 254 l 69 299 q 69 300 69 302 q 69 358 87 425 q 124 563 223 659 q 277 711 301 711 q 316 711 316 699 l 316 691 q 316 684 288 646 q 259 609 254 603 q 167 476 167 277 q 167 79 256 -50 q 316 -137 316 -146 q 316 -159 299 -159 z"},"C":{"x_min":0,"x_max":663,"ha":663,"o":"m 239 14 q 122 63 72 186 q 46 250 46 319 l 46 337 q 46 406 71 471 q 95 535 137 580 q 179 625 235 652 q 292 679 354 679 l 371 679 q 396 679 456 670 q 515 660 549 660 q 583 660 596 628 q 609 596 609 530 q 609 496 590 496 q 582 496 553 530 q 478 618 373 618 q 327 618 287 596 q 170 529 169 336 q 169 334 169 333 q 169 273 186 222 q 219 116 304 77 q 341 60 385 60 q 429 60 469 75 q 509 90 549 120 q 588 149 606 149 q 616 149 616 130 q 616 111 592 77 q 567 44 541 30 q 463 -9 379 -9 q 295 -9 239 14 z"},"W":{"x_min":0,"x_max":941,"ha":941,"o":"m 754 572 q 754 643 844 643 q 889 643 889 626 l 889 615 l 882 604 l 871 593 q 855 572 846 544 q 837 516 826 455 q 815 395 800 347 q 741 164 721 117 q 701 69 686 59 q 671 48 651 48 q 603 48 521 304 q 482 427 468 427 l 459 410 q 448 384 415 279 q 381 173 362 127 q 342 82 323 61 q 303 40 294 40 l 279 40 l 263 46 q 240 60 223 102 q 207 145 182 231 q 158 317 150 341 l 123 420 q 107 464 101 496 l 97 519 q 83 587 72 609 q 61 632 61 638 q 61 657 114 657 q 167 657 202 637 q 217 628 223 618 q 229 608 232 548 q 235 488 251 435 q 310 238 325 238 q 331 238 336 253 q 341 269 352 324 q 363 379 369 402 l 389 477 q 405 542 405 598 q 405 621 438 634 q 452 640 476 640 q 500 640 527 626 q 554 611 564 589 q 565 588 574 538 q 583 487 620 371 q 656 255 665 255 q 680 255 733 436 q 754 505 754 572 z"},"A":{"x_min":0,"x_max":690,"ha":690,"o":"m 380 278 q 410 278 410 288 q 410 313 336 518 q 325 550 324 550 q 323 550 279 427 q 235 304 235 290 l 235 287 q 235 280 249 280 l 255 279 l 337 278 z m 668 38 q 668 20 647 14 q 625 8 568 8 l 540 7 l 526 7 l 512 7 q 443 7 443 25 q 443 25 454 46 q 464 66 464 90 q 464 114 451 159 q 438 205 422 218 q 406 231 319 231 q 231 231 213 215 q 204 206 191 171 q 179 136 179 103 q 179 70 189 53 q 190 51 200 39 q 209 27 209 21 q 209 8 142 8 q 75 8 49 15 q 23 21 23 39 q 23 47 44 62 q 64 78 68 82 q 90 106 107 146 q 124 186 172 316 q 220 447 241 518 q 263 588 276 617 q 302 674 342 674 q 382 674 415 608 q 438 560 493 396 q 548 231 594 127 q 611 90 631 74 q 668 43 668 38 z"},"f":{"x_min":0,"x_max":366,"ha":366,"o":"m 271 24 q 271 9 250 5 q 213 -2 124 -2 l 100 -2 q 51 -2 51 17 q 51 22 73 43 q 95 64 101 94 q 107 124 107 233 q 107 342 101 362 q 96 382 75 396 q 55 411 55 424 q 55 438 74 455 q 92 473 100 494 q 140 604 163 630 q 186 656 222 673 q 258 689 295 689 l 308 689 q 341 689 368 675 q 395 660 395 636 l 395 625 q 395 596 366 596 q 351 596 321 610 q 291 624 265 624 q 239 624 223 592 q 212 571 212 530 q 212 488 229 467 q 245 446 272 433 q 299 420 299 404 q 299 397 270 387 q 240 376 233 364 q 221 342 221 254 l 219 160 q 219 98 227 79 q 235 59 253 45 q 271 32 271 24 z"},"Q":{"x_min":0,"x_max":752,"ha":752,"o":"m 176 361 l 176 343 q 176 284 190 230 q 219 126 290 78 q 322 57 354 57 l 366 57 q 445 57 507 138 q 570 219 570 325 l 570 361 q 570 409 555 463 q 525 567 456 608 q 419 630 376 630 l 369 630 q 281 630 229 552 q 176 475 176 361 z m 58 344 l 58 359 q 58 424 83 484 q 107 545 153 592 q 245 686 377 686 q 509 686 590 602 q 683 507 683 352 q 683 196 576 71 q 523 9 523 8 q 523 -13 564 -38 q 606 -62 663 -80 q 719 -97 719 -109 l 719 -115 q 719 -120 712 -126 q 690 -145 641 -145 q 564 -145 436 -93 q 307 -41 220 31 q 58 165 58 343 q 58 343 58 344 z"},"w":{"x_min":0,"x_max":749,"ha":749,"o":"m 720 435 q 720 421 697 392 q 674 363 627 224 q 580 84 565 55 q 542 9 510 9 q 491 9 462 66 q 456 80 418 185 q 380 290 375 290 q 366 290 332 191 q 298 93 275 51 q 252 9 225 9 q 200 9 174 68 q 165 88 127 203 q 90 317 79 344 q 67 372 47 398 q 28 424 28 431 q 28 458 100 458 q 172 458 185 436 q 188 430 192 373 q 196 316 218 240 q 239 163 258 163 q 280 163 305 268 q 313 303 313 358 q 313 413 332 430 q 350 447 393 447 q 436 447 456 412 q 463 399 466 364 q 468 328 479 284 q 511 164 526 164 q 547 164 573 240 q 599 315 599 368 l 595 418 q 595 442 613 450 q 631 458 676 458 q 720 458 720 435 z"},"-":{"x_min":0,"x_max":355,"ha":355,"o":"m 312 276 l 312 270 l 312 267 q 312 263 312 260 q 312 228 291 222 q 277 218 170 218 l 167 218 l 150 218 l 139 217 l 125 217 l 115 217 l 102 217 l 91 216 l 84 216 l 74 216 l 64 216 q 42 216 42 238 l 42 248 l 42 251 q 42 288 60 292 q 78 296 183 296 l 279 298 l 289 298 q 312 298 312 276 z"},"E":{"x_min":0,"x_max":619,"ha":619,"o":"m 383 1 l 297 1 q 162 1 109 7 q 56 12 56 31 q 56 40 83 58 q 111 77 118 114 q 125 150 125 348 q 125 546 117 572 q 110 598 85 617 q 60 637 60 641 q 60 659 86 664 q 113 669 246 669 l 267 670 q 288 670 310 671 l 374 672 l 396 672 q 487 672 510 660 q 543 643 543 568 q 543 540 534 540 q 529 540 503 561 q 443 610 333 610 q 279 610 263 577 q 241 533 241 439 q 241 412 259 402 q 277 392 309 392 q 340 392 355 399 q 371 408 389 429 q 407 449 419 449 q 448 449 448 367 q 448 364 449 361 q 449 284 442 267 q 436 248 422 249 q 421 249 376 287 q 350 309 309 309 q 268 309 251 295 q 235 280 235 248 q 235 93 289 71 q 310 63 362 63 q 457 63 519 114 q 556 146 564 146 q 572 146 572 131 q 572 55 534 22 q 509 1 383 1 z"},"s":{"x_min":0,"x_max":434,"ha":434,"o":"m 46 103 q 46 137 65 137 q 70 137 94 109 q 171 47 219 39 q 254 39 277 56 q 301 73 301 104 q 301 136 267 159 q 252 168 186 198 q 119 227 93 250 q 54 286 54 341 q 54 395 97 432 q 141 469 202 469 l 215 469 q 230 469 265 463 q 300 457 323 457 q 347 457 357 441 q 368 425 368 368 q 368 340 353 340 q 344 340 319 365 q 294 391 270 405 q 245 419 204 419 q 163 419 146 391 q 138 375 138 362 q 138 349 145 337 q 161 312 240 279 q 320 247 346 225 q 391 188 391 141 l 391 128 q 391 70 344 31 q 298 -8 228 -8 l 214 -8 q 200 -8 161 0 q 122 7 106 7 l 87 6 q 66 6 56 28 q 46 49 46 103 z"},">":{"x_min":0,"x_max":561,"ha":561,"o":"m 473 242 q 105 36 73 36 q 63 36 63 65 q 63 95 111 124 q 160 154 284 216 q 408 278 408 283 q 408 284 264 359 q 121 435 107 444 q 62 475 62 502 q 62 530 72 530 l 79 530 q 114 530 463 331 q 501 309 501 283 q 501 257 473 242 z"},"l":{"x_min":0,"x_max":320,"ha":320,"o":"m 282 19 q 282 0 208 0 l 199 0 l 189 0 l 170 0 l 160 0 l 141 0 q 59 0 59 20 q 59 27 74 41 q 90 55 94 77 q 99 100 99 162 l 101 211 q 102 230 102 261 l 103 282 l 103 374 q 103 550 95 582 q 88 613 75 627 q 71 630 57 641 q 43 651 43 657 q 43 691 169 691 l 177 691 q 198 691 203 673 l 203 467 l 202 437 l 202 385 l 205 286 q 205 182 227 104 q 237 69 250 57 q 282 26 282 19 z"},"8":{"x_min":0,"x_max":544,"ha":544,"o":"m 390 150 l 390 171 q 390 217 347 260 q 324 283 286 299 q 248 316 240 316 l 231 316 q 206 316 176 276 q 146 236 146 194 l 146 172 q 146 118 183 81 q 220 44 266 44 l 287 44 q 333 44 361 78 q 390 112 390 150 z m 375 521 q 375 566 344 597 q 312 628 274 628 l 259 628 q 220 628 195 600 q 169 571 169 530 l 169 526 q 169 483 212 441 q 254 398 294 398 l 301 398 q 323 398 348 430 q 374 462 374 495 l 375 502 z m 489 194 l 489 183 q 489 142 469 103 q 449 64 418 40 q 356 -9 269 -9 l 257 -9 q 174 -9 113 38 q 53 85 53 168 q 53 251 124 310 l 149 329 q 168 343 168 348 q 168 354 138 379 q 75 432 75 507 q 75 582 134 631 q 193 681 275 681 l 287 681 q 362 681 414 637 q 465 594 465 526 q 465 458 409 405 l 369 367 q 369 364 407 336 q 445 308 467 274 q 489 240 489 194 z"},"\\":{"x_min":0,"x_max":422,"ha":422,"o":"m 366 -60 l 358 -60 q 334 -60 315 -19 q 279 56 231 181 q 184 306 106 493 q 29 680 29 691 q 29 702 60 702 l 68 702 q 94 702 118 646 q 396 -9 396 -47 q 396 -60 366 -60 z"},"e":{"x_min":0,"x_max":482,"ha":482,"o":"m 340 312 l 340 314 l 339 317 q 339 353 314 382 q 288 411 247 411 l 244 411 q 204 411 175 379 q 147 347 147 307 l 147 299 q 147 282 208 282 l 220 282 l 223 283 l 296 286 l 308 287 q 340 287 340 312 z m 254 -6 l 244 -6 q 157 -6 98 55 q 40 116 40 216 q 40 317 98 386 q 129 424 172 442 q 215 461 256 461 l 277 461 q 338 461 386 418 q 409 397 424 365 q 438 333 438 310 l 438 300 q 438 262 390 251 q 363 245 277 241 q 191 237 175 230 q 149 219 149 176 q 149 133 187 97 q 224 61 270 61 q 315 61 365 83 q 416 104 424 104 q 433 104 433 89 q 433 60 362 21 q 312 -6 254 -6 z"},"b":{"x_min":0,"x_max":549,"ha":549,"o":"m 190 184 l 191 159 q 191 104 216 73 q 241 42 283 42 l 288 42 l 292 42 q 340 42 370 92 q 399 142 399 210 l 399 232 q 399 307 368 354 q 337 401 292 401 l 288 401 l 284 400 q 244 400 218 367 q 192 334 192 277 l 191 267 l 190 247 q 190 241 190 236 l 189 215 l 190 209 l 190 189 z m 26 660 q 26 674 47 684 q 84 702 134 702 l 145 702 q 172 702 179 673 q 182 663 182 543 q 182 424 199 424 q 205 424 221 431 l 251 444 q 284 456 319 456 q 355 456 390 440 q 426 423 449 394 q 502 329 502 240 l 502 227 q 502 128 444 62 q 386 -5 307 -5 q 275 -5 222 8 q 169 21 163 21 q 157 21 141 16 q 124 11 111 11 q 81 11 81 78 l 86 212 q 86 230 86 248 l 84 365 q 84 543 77 577 q 71 612 56 625 q 26 653 26 660 z"},"%":{"x_min":0,"x_max":809,"ha":809,"o":"m 611 299 l 603 299 q 573 299 557 260 q 541 222 541 167 l 541 164 l 542 159 q 542 153 542 147 l 542 136 q 543 132 543 128 q 543 89 563 61 q 583 32 607 32 l 610 33 l 613 33 q 641 33 657 69 q 673 104 673 148 l 673 181 q 673 232 655 266 q 637 299 611 299 z m 141 482 l 142 462 q 142 424 161 395 q 179 366 202 366 l 211 366 q 236 366 254 399 q 272 432 272 472 l 273 479 l 273 496 l 273 513 q 273 567 256 602 q 238 637 211 637 l 202 637 q 178 637 160 604 q 142 571 142 530 l 141 522 l 141 506 l 141 486 z m 457 152 l 457 175 q 457 244 500 296 q 542 348 607 348 l 612 348 q 668 348 709 304 q 750 260 750 189 l 750 166 q 750 94 707 44 q 663 -6 605 -6 l 589 -6 q 564 -6 536 7 q 509 21 491 45 q 457 92 457 152 z m 624 665 q 624 639 273 61 q 234 -4 210 -4 l 202 -4 q 180 -4 180 6 q 180 10 539 623 q 569 675 597 675 q 624 675 624 665 z m 53 488 l 53 517 q 53 552 68 587 q 83 622 102 641 q 144 683 201 683 l 207 683 q 269 683 309 634 q 348 585 348 518 l 348 501 q 348 431 307 380 q 266 330 205 330 l 188 330 q 128 330 91 380 q 53 430 53 488 z"},"m":{"x_min":0,"x_max":830,"ha":830,"o":"m 555 375 q 541 375 520 363 q 499 351 489 315 q 479 279 479 133 q 479 99 491 79 l 501 67 q 519 47 519 43 q 519 27 502 21 q 477 13 413 13 q 349 13 337 19 q 325 24 325 41 l 332 53 q 347 76 348 80 q 357 103 357 196 q 357 289 347 327 q 337 366 317 376 q 308 381 288 381 q 268 381 246 367 q 224 353 208 324 q 193 295 193 200 q 193 106 199 63 q 206 21 206 19 q 206 6 156 6 q 105 6 69 20 q 47 28 47 50 q 47 54 65 72 q 83 90 90 106 q 96 122 96 228 q 96 334 91 362 q 85 389 78 400 l 65 417 q 65 427 77 432 q 108 446 137 446 q 166 446 176 440 q 186 434 195 414 q 205 395 209 395 q 216 395 239 406 q 261 418 283 427 q 305 435 345 435 q 385 435 413 420 l 429 411 q 455 394 457 394 q 468 394 519 423 q 569 453 606 453 q 684 453 719 386 q 742 341 742 197 q 742 128 747 111 q 752 94 769 75 q 787 56 787 46 q 787 36 768 27 q 729 7 664 7 q 639 7 639 21 q 644 47 645 51 l 645 121 l 644 224 q 644 302 629 332 q 608 375 555 375 z"},"#":{"x_min":0,"x_max":578,"ha":578,"o":"m 216 265 l 240 265 l 243 266 l 271 267 q 332 267 337 275 q 342 283 350 329 l 351 332 l 360 381 l 361 384 l 361 386 l 363 392 l 366 408 l 366 411 q 366 418 344 418 l 300 418 q 245 418 238 407 q 236 403 233 385 q 229 367 220 330 q 210 294 210 271 q 210 265 216 265 z m 282 640 l 260 501 q 260 489 267 485 q 274 481 320 481 q 366 481 374 491 q 382 500 393 559 q 404 617 411 634 q 423 665 452 665 q 472 665 472 641 l 469 625 q 466 608 459 569 q 452 531 452 508 q 452 486 492 479 q 533 472 533 445 q 533 431 524 426 q 515 420 478 416 q 442 411 434 403 q 408 378 408 293 q 408 273 456 269 q 503 264 503 241 q 503 218 484 211 q 479 209 445 205 q 411 202 398 187 q 385 172 372 106 q 358 40 355 32 q 346 12 321 12 q 297 12 297 33 q 297 51 309 113 q 320 174 320 186 q 320 197 313 200 q 306 202 260 202 q 213 202 205 191 q 197 180 183 113 q 169 45 160 27 q 151 9 128 9 q 105 9 105 31 q 105 33 111 65 l 118 99 q 128 154 128 174 q 128 193 115 199 l 101 202 l 71 206 q 45 212 45 228 q 45 252 62 261 q 67 264 102 269 q 136 273 146 283 q 169 311 169 392 q 169 411 121 417 q 73 423 73 444 q 73 460 82 467 q 90 474 131 479 q 172 484 183 495 q 193 505 207 574 q 221 642 228 655 q 234 667 263 667 q 282 667 282 640 z"},",":{"x_min":0,"x_max":279,"ha":279,"o":"m 207 49 l 207 30 q 207 -18 179 -62 q 150 -106 114 -133 q 99 -145 89 -145 l 86 -145 q 75 -145 75 -129 q 75 -127 102 -88 q 129 -48 129 -22 q 129 -12 102 13 q 74 38 74 60 l 74 68 q 74 95 92 109 q 110 124 132 124 l 140 124 q 171 124 189 102 q 207 81 207 49 z"},"n":{"x_min":0,"x_max":586,"ha":586,"o":"m 551 54 q 551 34 510 23 q 469 13 423 13 q 376 13 376 22 q 376 27 382 37 q 387 48 391 59 q 395 70 395 99 q 395 127 396 142 l 396 186 q 396 304 370 346 q 345 389 288 389 q 268 389 245 377 q 222 365 208 343 q 195 321 195 222 q 195 124 202 90 q 208 57 226 36 q 231 29 231 23 q 231 3 159 3 l 145 4 l 131 4 q 70 4 54 10 q 39 16 39 35 q 39 45 63 61 q 87 76 92 97 q 97 117 97 223 q 97 328 90 358 q 83 389 75 398 q 55 419 55 424 q 55 429 73 439 q 91 449 137 449 q 183 449 192 442 q 202 435 209 413 q 216 391 226 391 q 230 391 254 405 q 319 443 380 443 q 440 443 471 396 q 491 363 491 260 q 491 157 500 126 q 508 96 521 85 q 551 60 551 54 z"},"h":{"x_min":0,"x_max":583,"ha":583,"o":"m 94 555 q 94 615 68 632 q 48 646 48 652 l 53 661 q 70 676 154 676 q 185 676 194 654 q 199 642 206 531 q 212 420 233 420 q 236 420 258 432 q 314 461 347 461 l 348 461 q 381 461 413 446 q 445 430 467 396 q 488 362 488 248 q 488 134 494 108 q 500 82 510 68 l 518 59 l 527 50 q 537 39 537 32 q 537 3 425 3 q 365 3 365 24 q 365 25 372 43 q 378 60 384 122 q 390 184 390 257 q 390 331 371 358 q 352 385 317 385 q 255 385 222 335 q 197 300 197 223 q 197 87 219 48 q 234 21 234 16 q 234 0 163 0 l 110 0 q 46 0 46 26 q 46 30 65 53 q 85 77 91 105 q 98 134 98 280 l 92 487 l 93 503 q 94 524 94 555 z"},"z":{"x_min":0,"x_max":476,"ha":476,"o":"m 437 108 q 437 47 416 17 q 404 0 366 0 l 300 0 l 287 0 l 231 1 q 81 1 69 2 q 42 6 42 26 q 42 54 167 218 q 291 382 291 396 q 291 409 239 409 q 147 409 101 365 q 70 337 66 337 q 52 337 52 362 q 52 416 66 444 q 75 461 114 461 l 167 461 l 181 461 l 248 460 q 378 460 395 457 q 418 453 418 433 q 418 395 297 238 q 175 82 175 65 q 175 52 233 52 q 332 52 383 97 q 423 132 423 132 q 437 132 437 108 z"},"B":{"x_min":0,"x_max":644,"ha":644,"o":"m 470 177 l 470 197 q 470 256 426 294 q 381 331 305 331 l 276 331 q 263 330 256 330 q 233 330 233 276 l 233 263 l 234 258 l 234 235 l 234 222 q 234 215 234 208 q 234 103 245 81 q 255 59 306 59 l 315 58 l 335 58 q 397 58 434 91 q 470 124 470 177 z m 440 496 l 440 518 q 440 565 405 594 q 370 623 314 623 l 293 623 q 285 622 271 622 q 256 622 246 612 q 236 602 236 586 q 235 571 235 567 l 235 563 q 235 560 235 556 l 234 552 l 234 543 l 234 527 l 234 432 q 234 400 242 391 q 250 382 280 382 l 296 382 q 360 382 400 412 q 440 442 440 496 z m 125 416 l 125 460 q 125 568 117 590 q 109 611 83 628 q 58 646 58 658 q 58 675 121 675 l 320 675 q 483 675 531 586 q 549 553 549 512 q 549 430 462 380 q 441 368 441 365 q 441 362 462 353 q 523 327 554 289 q 585 251 585 192 l 585 179 q 585 145 567 109 q 548 73 510 46 q 447 2 331 2 l 292 2 l 280 3 l 168 3 l 120 2 l 97 2 q 57 2 57 19 q 57 31 84 48 q 111 64 119 95 q 127 125 127 282 l 126 321 l 125 372 l 125 384 q 125 397 125 416 z"},"K":{"x_min":0,"x_max":703,"ha":703,"o":"m 94 615 q 61 643 61 647 q 61 662 76 668 q 90 673 178 673 l 221 673 q 292 673 292 654 q 292 652 273 628 q 255 604 245 568 q 236 532 236 429 q 236 378 256 378 q 265 378 285 393 q 331 426 405 518 q 452 575 452 615 l 450 628 l 445 640 l 443 650 q 443 673 503 673 l 524 673 q 630 673 630 652 q 630 640 591 613 q 552 586 507 541 q 386 420 386 393 q 386 365 402 342 q 465 249 529 169 q 593 90 610 75 q 627 61 648 45 q 669 30 669 25 q 669 2 589 2 q 508 2 484 10 q 449 22 449 64 q 449 105 399 182 q 349 258 315 284 q 297 298 288 298 q 240 298 240 183 q 240 118 249 92 q 257 67 271 45 q 286 23 286 22 q 286 1 221 1 l 135 1 q 77 1 65 17 l 62 27 q 62 33 85 51 q 108 69 117 87 q 125 105 125 210 l 125 302 l 123 370 q 122 415 122 492 q 122 569 115 586 q 107 604 94 615 z"},"R":{"x_min":0,"x_max":680,"ha":680,"o":"m 444 481 l 444 504 q 444 557 409 589 q 374 621 319 621 l 296 621 q 253 621 245 601 q 237 580 237 472 l 237 450 l 237 438 l 237 404 q 237 370 244 363 q 252 355 275 355 l 302 355 q 370 355 407 392 q 444 430 444 481 z m 62 659 q 62 674 239 674 l 289 674 q 423 674 484 636 q 517 616 537 580 q 558 544 558 495 q 558 413 489 356 q 450 324 450 314 q 450 304 501 214 q 552 124 570 102 q 588 80 623 61 q 658 42 658 29 q 658 4 567 4 q 516 4 488 33 q 459 62 417 150 q 374 238 355 262 q 325 301 278 301 q 254 301 248 285 q 242 268 242 197 q 242 126 257 84 q 263 68 282 46 q 301 24 301 21 q 301 2 242 2 l 141 2 q 93 2 75 7 q 57 12 57 30 q 57 40 83 55 q 110 70 118 93 q 125 116 125 238 l 128 392 q 128 553 118 584 q 107 614 85 632 q 62 649 62 659 z"},"T":{"x_min":0,"x_max":635,"ha":635,"o":"m 418 609 q 395 609 385 580 q 375 551 375 459 l 374 426 l 374 393 l 373 359 l 373 310 q 373 152 382 112 q 392 71 409 57 q 449 23 449 19 q 449 0 399 0 l 384 0 l 368 0 l 256 0 q 184 0 184 17 q 184 30 211 47 q 237 65 245 83 q 260 119 260 222 l 261 256 l 261 372 q 261 539 254 565 q 243 605 205 605 q 135 605 83 542 q 56 508 51 508 q 38 508 38 541 q 38 649 62 666 q 74 674 174 674 l 222 674 l 238 673 l 334 673 q 561 673 576 666 q 599 655 599 564 l 599 549 q 599 510 584 510 q 574 510 550 542 q 527 574 500 591 q 473 609 418 609 z"},"P":{"x_min":0,"x_max":607,"ha":607,"o":"m 445 468 l 445 489 q 445 551 407 585 q 369 620 302 620 q 263 620 251 611 q 239 603 239 573 l 238 560 l 238 546 l 237 533 l 237 456 l 237 442 l 237 389 q 237 353 245 343 q 254 333 293 333 l 306 333 q 370 333 407 371 q 445 408 445 468 z m 566 492 l 566 479 q 566 436 544 395 q 494 304 366 286 q 255 271 251 267 q 236 248 236 179 q 236 110 247 89 q 258 68 284 51 q 311 33 311 20 q 311 2 177 2 l 126 1 q 49 1 49 19 q 49 31 85 57 q 108 73 115 114 q 123 155 123 354 q 123 552 116 577 q 109 603 86 624 q 63 646 63 653 q 63 672 237 672 l 326 673 q 443 673 500 628 q 532 603 549 567 q 566 531 566 492 z"},"|":{"x_min":0,"x_max":383,"ha":383,"o":"m 192 -180 l 183 -180 q 166 -180 161 -172 q 156 -164 156 -108 l 156 672 q 156 718 160 728 q 165 737 190 737 l 199 737 q 223 737 224 716 q 226 694 226 445 l 226 -17 l 227 -46 l 227 -116 q 227 -162 222 -171 q 218 -180 192 -180 z"},"t":{"x_min":0,"x_max":374,"ha":374,"o":"m 315 77 q 336 77 336 62 q 336 42 295 20 q 254 -2 217 -2 q 148 -2 121 57 q 104 95 104 217 q 104 339 95 364 q 86 388 68 398 q 34 418 34 426 q 34 437 43 442 q 52 448 65 455 q 77 461 83 467 q 89 474 101 501 q 113 529 116 535 q 140 581 166 581 l 173 581 q 190 581 202 537 q 215 493 222 485 q 238 468 283 461 q 328 455 328 433 q 328 411 278 400 q 229 390 219 371 q 204 344 204 240 q 204 135 221 105 q 239 74 288 74 q 310 77 315 77 z"},"M":{"x_min":0,"x_max":884,"ha":884,"o":"m 646 523 q 637 523 553 310 q 469 97 461 82 q 438 35 412 35 q 391 35 298 275 q 204 515 189 515 q 181 515 181 317 q 181 120 200 69 l 208 53 q 216 34 216 27 q 216 7 132 7 q 48 7 48 31 q 48 35 73 58 q 99 81 109 124 q 119 167 119 479 q 119 568 91 606 l 76 622 q 61 637 61 648 q 61 667 149 667 q 200 667 222 656 q 244 645 264 616 q 284 588 360 398 q 436 208 442 208 q 449 208 527 398 q 605 587 628 621 q 651 654 682 664 q 698 668 735 668 q 818 668 818 649 q 818 635 798 612 q 778 589 771 555 q 763 521 763 416 l 764 385 q 764 354 764 257 q 764 160 772 124 q 780 88 793 70 l 808 54 q 832 31 832 30 l 828 19 q 811 3 737 3 q 664 3 638 14 q 623 20 623 33 l 629 46 l 637 62 q 646 81 652 117 q 657 154 657 298 l 658 447 q 658 523 646 523 z"},"g":{"x_min":0,"x_max":505,"ha":505,"o":"m 396 -94 l 396 -84 q 396 -50 351 -35 q 317 -22 234 -22 l 218 -22 q 167 -22 146 -35 q 105 -59 105 -92 l 105 -105 q 105 -132 140 -155 q 175 -177 226 -177 l 256 -177 q 311 -177 353 -152 q 396 -127 396 -94 z m 314 284 l 314 303 l 312 326 q 312 359 290 388 q 268 417 238 417 l 229 417 q 198 417 177 387 q 156 356 156 309 l 156 289 q 156 241 178 209 q 201 176 236 176 l 239 176 q 271 176 292 205 q 314 233 314 284 z m 227 142 q 143 136 143 101 q 143 81 169 73 q 195 65 279 60 q 363 54 396 38 q 462 5 462 -66 q 462 -137 399 -182 q 336 -227 239 -227 l 223 -227 q 141 -227 89 -191 q 37 -156 37 -111 l 37 -100 q 37 -78 69 -38 q 100 1 100 5 q 101 9 90 19 q 58 49 58 75 q 58 101 76 121 q 80 125 98 141 q 116 157 116 165 q 116 172 108 183 l 101 192 q 65 237 65 280 q 65 359 127 409 q 190 459 274 459 q 396 459 460 437 q 471 433 471 424 q 471 411 438 404 q 404 398 404 375 l 411 315 q 410 275 394 242 q 348 150 227 142 z"},"j":{"x_min":0,"x_max":297,"ha":297,"o":"m 225 83 q 225 -64 190 -121 q 167 -159 127 -179 q 88 -200 54 -200 l 37 -200 q 12 -200 -1 -188 q -15 -176 -15 -161 q -15 -130 30 -130 l 57 -133 q 102 -133 117 -69 q 125 -35 125 130 q 125 295 115 335 q 106 375 83 397 q 61 420 61 426 q 61 433 73 439 q 108 459 187 459 l 195 459 q 223 459 223 407 q 224 390 224 380 l 225 362 z m 229 629 l 229 617 q 229 595 212 579 q 196 562 164 562 l 162 562 q 134 562 119 578 q 104 593 104 617 l 104 619 q 104 641 119 659 q 133 676 156 676 l 168 678 l 172 678 q 199 678 214 663 q 229 648 229 629 z"},"i":{"x_min":0,"x_max":306,"ha":306,"o":"m 109 271 l 108 319 q 108 378 68 400 q 45 414 45 424 q 45 432 58 438 q 99 460 178 460 l 184 460 q 206 460 209 436 l 209 287 q 209 124 216 94 q 223 64 243 51 q 274 30 274 22 l 274 18 q 274 1 228 1 l 220 1 l 213 2 l 132 2 l 102 1 l 73 1 q 42 1 42 19 q 42 30 67 45 q 93 60 101 89 q 109 118 109 187 z m 216 625 l 216 613 q 214 607 214 600 q 214 592 199 577 q 184 562 160 562 l 147 562 l 146 562 l 142 562 q 138 563 136 563 q 121 563 107 577 q 93 591 93 604 l 92 614 l 92 624 q 92 647 109 661 q 126 676 149 676 l 164 676 q 186 676 201 661 q 216 646 216 625 z"},"y":{"x_min":0,"x_max":519,"ha":519,"o":"m 199 385 q 199 326 268 167 q 277 146 285 146 q 290 146 302 174 q 366 325 366 394 q 366 408 358 423 q 350 439 350 443 q 350 459 401 459 l 416 459 q 491 459 491 434 q 491 427 464 394 q 436 361 429 346 q 407 297 335 113 q 264 -72 241 -113 q 219 -154 195 -174 q 171 -193 140 -193 l 127 -193 q 103 -193 83 -179 q 62 -164 62 -144 q 62 -123 104 -120 q 146 -117 171 -92 q 217 -44 217 18 q 217 34 205 71 q 170 180 96 334 q 86 355 58 392 q 30 429 30 436 q 30 459 138 459 q 183 459 195 453 q 207 447 207 431 q 199 402 199 385 z"},"@":{"x_min":0,"x_max":774,"ha":774,"o":"m 345 171 l 354 171 q 367 171 391 186 q 415 201 434 232 q 479 305 479 383 l 479 390 q 479 410 467 423 q 456 436 436 436 l 433 436 l 430 436 q 389 436 347 375 q 305 314 305 246 l 305 232 q 305 203 316 187 q 328 171 345 171 z m 495 146 l 479 158 l 458 182 q 449 182 410 162 q 371 141 339 141 q 308 141 280 168 q 251 194 251 246 q 251 319 297 383 q 342 447 405 447 l 423 445 l 440 443 l 457 445 l 475 448 l 492 451 q 521 451 527 441 q 533 431 533 414 q 533 397 522 343 q 511 288 511 259 q 511 230 522 219 q 533 208 554 208 l 572 214 q 599 228 621 262 q 656 318 656 384 q 656 481 594 540 q 531 599 430 599 q 310 599 224 503 q 182 458 162 398 q 142 338 142 282 q 142 169 207 95 q 239 58 290 33 q 341 8 408 8 q 474 8 541 35 q 601 58 607 58 q 608 58 608 58 q 608 50 584 31 q 560 11 499 -11 q 438 -34 370 -34 q 230 -34 142 59 q 106 96 83 154 q 60 211 60 281 q 60 427 149 529 q 202 590 274 622 q 346 653 411 653 l 439 653 q 495 653 547 633 q 655 591 696 492 q 718 440 718 392 q 718 343 708 305 q 681 206 605 159 q 573 139 542 139 q 512 139 495 146 z"},".":{"x_min":0,"x_max":278,"ha":278,"o":"m 202 47 q 202 24 185 8 q 168 -9 142 -9 l 133 -9 q 105 -9 89 9 q 73 28 73 51 l 73 62 q 73 85 89 104 q 105 124 133 124 l 142 124 q 149 122 153 122 q 168 122 184 106 q 200 90 200 71 l 202 61 z"},"p":{"x_min":0,"x_max":559,"ha":559,"o":"m 198 191 l 199 167 q 199 119 219 95 q 250 59 291 59 l 300 59 q 349 59 379 108 q 408 158 408 220 l 408 248 q 408 316 377 360 q 346 404 306 404 l 293 404 q 249 404 219 364 q 199 337 199 286 q 198 276 198 271 l 198 266 q 198 261 198 256 l 197 251 l 197 196 z m 515 254 q 515 252 515 251 q 515 201 499 157 q 464 62 379 24 q 344 9 309 9 q 274 9 248 16 q 222 24 213 24 q 193 24 193 -40 q 193 -104 208 -130 q 214 -143 237 -159 q 260 -175 260 -186 q 260 -200 183 -200 l 145 -200 q 37 -200 37 -185 l 37 -177 q 37 -172 57 -155 q 76 -139 82 -122 q 96 -84 96 7 l 96 20 q 97 32 97 45 l 98 120 q 98 133 98 146 l 99 171 q 99 328 93 355 q 86 383 66 399 q 46 416 46 424 q 46 433 57 440 q 89 460 154 460 q 176 460 186 446 q 188 442 193 429 q 199 417 205 417 q 211 417 231 430 q 288 466 340 466 q 416 466 465 407 q 515 348 515 254 z"},"X":{"x_min":0,"x_max":689,"ha":689,"o":"m 526 0 l 505 0 q 419 0 419 21 q 419 22 427 39 q 435 56 435 81 q 435 106 365 216 q 333 265 319 265 q 300 265 236 152 q 209 105 209 70 q 209 60 222 39 q 235 19 235 14 q 235 1 134 1 q 33 1 33 16 q 33 34 70 55 q 107 77 145 125 q 279 295 279 334 l 272 352 q 239 422 128 566 q 107 594 89 608 q 42 645 42 651 q 42 671 120 671 l 162 672 q 205 673 224 673 q 282 673 282 651 q 282 649 273 634 q 264 619 264 608 q 264 573 330 470 q 355 430 364 430 q 381 430 435 521 q 467 574 467 605 q 467 615 454 635 q 442 656 442 660 q 442 672 539 672 q 635 672 635 653 q 635 643 587 611 q 562 595 519 539 q 412 396 412 364 q 412 349 423 329 q 481 223 567 113 q 586 89 621 60 q 656 30 656 27 q 656 8 633 4 q 610 0 526 0 z"},"*":{"x_min":0,"x_max":457,"ha":457,"o":"m 265 553 q 270 553 302 575 q 333 597 347 597 q 375 597 375 573 q 375 546 346 525 q 342 523 314 511 q 305 506 305 496 q 305 486 312 477 q 340 438 340 422 q 340 405 324 405 l 266 416 q 262 416 256 400 q 250 385 239 385 l 225 386 l 205 383 q 195 383 190 402 q 186 420 172 420 l 118 414 q 110 414 110 425 q 110 437 131 469 q 151 501 151 506 q 151 512 136 519 q 121 525 112 533 q 83 557 83 583 q 83 605 114 605 q 114 605 115 605 q 129 605 168 576 q 194 557 203 556 q 207 556 207 561 l 198 648 q 198 685 240 685 q 266 685 266 652 l 253 565 q 253 553 265 553 z"},"Y":{"x_min":0,"x_max":656,"ha":656,"o":"m 456 17 q 456 0 401 0 l 337 0 l 321 0 q 198 0 198 14 q 198 27 225 44 q 252 60 260 81 q 274 118 274 221 q 274 262 255 304 q 237 347 137 518 q 104 575 83 595 q 29 645 29 647 q 29 672 184 672 l 200 672 q 256 672 256 651 q 256 647 246 633 q 235 619 235 602 q 235 572 323 405 q 346 360 355 360 q 364 360 395 414 q 475 553 475 597 q 475 615 463 634 q 450 652 450 658 q 450 672 521 672 q 630 672 630 649 q 630 635 600 615 q 570 595 547 563 q 503 501 430 361 q 387 279 387 198 q 387 118 397 89 q 407 60 431 44 q 456 28 456 17 z"},"c":{"x_min":0,"x_max":476,"ha":476,"o":"m 434 89 q 434 60 378 25 q 322 -9 265 -9 q 159 -9 98 56 q 38 120 38 219 l 38 231 q 38 276 57 323 q 76 370 106 400 q 173 464 257 464 q 341 464 393 437 q 427 418 427 378 q 427 338 396 338 q 389 338 347 373 q 305 408 263 408 q 207 408 174 361 q 142 314 142 235 q 142 156 182 108 q 222 61 281 61 q 319 61 370 81 q 420 102 427 102 q 434 102 434 95 z"},"!":{"x_min":0,"x_max":309,"ha":309,"o":"m 149 118 l 162 118 q 188 118 204 99 q 220 80 220 56 l 220 49 q 220 22 202 7 q 184 -8 161 -8 l 150 -8 q 126 -8 110 8 q 94 24 94 42 l 93 55 l 93 60 q 93 79 107 98 q 121 118 149 118 z m 168 683 q 216 683 216 625 l 216 614 l 215 609 l 214 583 l 213 562 q 213 539 207 494 q 202 449 198 400 q 194 352 189 312 q 184 273 184 243 q 184 192 157 192 l 151 192 q 127 192 127 262 l 122 320 q 121 332 119 352 q 118 373 116 388 q 115 404 115 406 l 114 418 l 112 429 q 98 592 98 599 l 97 609 l 97 624 l 97 628 q 97 656 115 669 q 133 683 163 683 z"},"/":{"x_min":0,"x_max":412,"ha":412,"o":"m 162 129 l 142 78 q 140 71 121 25 q 103 -21 99 -29 q 81 -66 53 -66 l 44 -66 q 21 -66 21 -54 q 21 -42 43 10 q 146 261 207 418 q 267 576 303 659 q 323 704 354 704 q 385 704 385 692 q 385 680 347 588 q 310 497 271 401 q 232 304 220 275 q 208 246 162 129 z"},"[":{"x_min":0,"x_max":354,"ha":354,"o":"m 275 -147 l 252 -147 l 217 -146 l 182 -146 q 130 -146 118 -138 q 105 -131 101 -111 q 98 -90 98 259 l 98 307 q 98 651 102 672 q 107 692 121 699 q 135 705 199 705 l 246 706 l 257 707 l 280 707 q 308 707 308 692 q 308 672 257 660 q 207 647 197 614 q 188 580 188 282 q 188 -16 195 -46 q 203 -77 219 -87 q 227 -92 267 -104 q 308 -115 308 -128 q 308 -147 275 -147 z"},"6":{"x_min":0,"x_max":545,"ha":545,"o":"m 386 187 l 386 212 q 385 223 385 228 q 385 283 347 328 q 319 361 279 361 l 270 361 q 226 361 195 325 q 165 289 165 226 l 165 216 q 165 145 197 94 q 229 43 277 43 l 286 43 q 328 43 357 84 q 386 125 386 187 z m 276 -7 q 228 -7 184 16 q 99 59 66 161 q 47 219 47 279 l 47 306 q 47 373 70 437 q 93 501 130 547 q 167 593 221 624 q 275 654 334 654 l 356 654 q 394 654 420 641 q 446 627 446 611 q 446 589 400 589 l 384 591 q 373 592 358 592 q 285 592 237 547 q 208 520 193 484 q 177 448 177 418 q 177 388 206 388 q 210 388 230 394 q 251 400 263 402 q 275 405 309 405 q 380 405 433 353 q 461 324 477 285 q 492 246 492 211 l 492 198 q 492 115 436 54 q 381 -7 289 -7 z"},"r":{"x_min":0,"x_max":416,"ha":416,"o":"m 154 450 l 171 450 q 192 450 201 419 q 210 389 223 389 q 227 389 244 404 q 261 419 269 425 q 300 448 328 448 q 355 448 373 432 q 390 417 390 398 l 390 390 q 390 376 379 362 q 368 348 349 348 q 345 348 321 358 q 296 367 281 367 q 265 367 246 353 q 228 338 214 306 q 201 273 201 194 q 201 115 211 93 q 221 71 246 48 q 271 24 271 21 q 271 0 128 0 l 107 0 l 87 0 q 39 0 39 14 q 39 29 62 45 q 85 61 93 79 q 100 98 100 162 l 100 246 l 99 288 q 99 337 90 357 q 82 377 63 393 q 45 409 45 417 q 45 424 54 430 q 87 450 154 450 z"},"2":{"x_min":0,"x_max":539,"ha":539,"o":"m 478 105 l 478 92 q 478 30 445 12 q 429 2 345 2 l 313 2 q 298 2 266 3 l 218 6 q 165 9 115 9 q 66 9 66 36 q 66 72 123 144 q 146 173 216 250 q 287 327 317 374 q 347 421 347 470 q 347 518 318 548 q 288 579 248 579 q 177 579 130 506 q 109 474 89 474 q 72 474 72 503 q 72 569 130 611 q 188 653 260 653 l 276 653 q 315 653 354 638 q 460 594 460 469 q 460 408 411 343 q 384 309 286 222 q 188 135 188 111 q 188 87 280 87 q 371 87 414 107 q 456 128 458 128 q 478 128 478 105 z"},"{":{"x_min":0,"x_max":383,"ha":383,"o":"m 150 416 q 150 615 160 636 q 176 670 213 690 q 250 711 297 711 l 309 711 q 323 711 323 705 l 323 699 q 323 693 291 667 q 258 641 246 612 q 234 583 234 507 l 236 438 q 236 373 219 342 q 203 311 178 297 q 154 284 154 278 l 174 268 q 202 252 218 221 q 235 189 235 110 l 232 28 q 232 -31 248 -61 q 264 -90 293 -112 q 322 -134 322 -146 q 322 -154 291 -154 q 259 -154 228 -140 q 196 -126 179 -107 q 143 -68 143 21 l 150 162 q 150 199 136 219 q 123 238 95 256 q 66 274 66 282 q 66 291 95 306 q 125 321 137 343 q 150 365 150 416 z"},"9":{"x_min":0,"x_max":545,"ha":545,"o":"m 375 458 q 375 517 340 561 q 306 606 268 606 l 254 606 q 212 606 184 562 q 156 519 156 460 l 156 440 q 156 380 186 334 q 215 288 264 288 l 268 288 l 272 289 q 313 289 344 322 q 375 354 375 399 l 375 409 l 376 423 l 376 433 q 375 448 375 458 z m 174 56 q 255 56 306 103 q 336 130 351 167 q 366 203 366 229 q 366 261 336 261 q 332 261 319 258 l 309 256 q 291 250 278 248 q 266 245 231 245 q 196 245 160 262 q 124 280 101 307 q 50 366 50 451 q 50 536 107 596 q 165 657 256 657 q 364 657 433 569 q 460 535 477 479 q 494 424 494 365 l 494 352 q 494 208 417 107 q 380 60 323 27 q 267 -5 204 -5 l 182 -5 q 139 -5 108 15 q 93 25 93 37 q 93 58 140 58 l 156 56 z"}," ":{"x_min":0,"x_max":271,"ha":271,"o":""},"I":{"x_min":0,"x_max":372,"ha":372,"o":"m 53 655 q 53 670 72 673 q 75 673 198 673 l 273 674 q 319 674 319 661 q 319 648 289 628 q 259 607 251 572 q 242 536 242 336 q 242 136 250 101 q 258 66 278 53 q 319 27 319 20 q 319 5 302 1 q 297 0 186 0 l 154 0 l 100 0 q 53 0 53 14 l 53 20 q 53 27 83 46 q 113 65 121 101 q 130 137 130 338 l 130 394 l 129 416 q 129 427 129 438 l 128 505 q 128 563 115 596 q 108 612 81 629 q 53 646 53 655 z"},"H":{"x_min":0,"x_max":768,"ha":768,"o":"m 46 648 q 46 669 110 669 l 156 669 l 180 668 q 289 668 289 651 q 289 645 272 628 q 255 611 249 590 q 234 542 234 435 q 234 396 252 385 q 270 374 372 374 q 474 374 497 382 q 527 393 527 444 q 527 535 519 570 q 512 604 494 624 q 477 644 477 653 q 477 667 597 667 q 717 667 717 650 q 717 633 691 615 q 665 598 656 569 q 648 540 648 358 l 647 263 l 647 239 q 647 110 661 78 q 667 62 685 52 q 722 31 722 21 q 722 2 678 2 l 655 2 q 482 2 482 25 q 482 31 498 49 q 515 67 521 89 q 535 142 535 247 q 535 307 516 318 q 497 329 396 329 q 296 329 269 318 q 241 308 241 254 q 241 150 250 110 q 259 70 275 50 q 292 30 292 21 q 292 7 183 7 q 74 7 62 12 q 50 17 50 36 q 50 42 78 57 q 106 71 113 99 q 120 127 120 287 l 122 406 q 122 554 107 589 q 101 604 83 616 q 46 641 46 648 z"},"4":{"x_min":0,"x_max":553,"ha":553,"o":"m 146 230 l 193 230 l 197 230 q 294 230 300 243 q 306 255 306 327 l 306 404 l 307 408 q 307 417 307 425 l 307 438 q 307 442 307 447 l 308 459 l 308 468 l 308 485 l 308 510 q 308 524 304 524 q 301 524 254 454 q 208 385 200 374 q 192 362 179 343 q 166 323 161 317 l 148 299 q 146 296 144 292 q 141 289 138 285 q 135 281 120 260 q 105 239 105 236 l 105 234 q 105 230 146 230 z m 342 -19 l 331 -19 q 298 -19 278 -7 q 259 5 259 21 q 259 36 273 58 q 288 80 288 97 q 288 139 256 155 q 236 165 139 165 q 90 165 65 178 q 40 191 40 211 l 40 220 q 40 258 298 605 q 330 649 362 649 l 372 649 q 397 649 406 629 q 414 609 414 566 l 413 543 l 412 448 q 412 308 424 276 q 431 260 460 242 q 490 224 490 205 q 490 197 474 181 q 458 165 457 163 q 435 124 435 104 q 435 84 444 66 q 453 47 453 27 q 453 7 423 -6 q 393 -19 342 -19 z"},"~":{"x_min":0,"x_max":580,"ha":580,"o":"m 178 386 l 194 386 q 224 386 300 350 q 375 313 404 313 q 432 313 461 347 q 491 381 499 381 q 522 381 522 360 l 522 354 q 522 316 474 273 q 440 244 399 244 q 357 244 284 280 q 211 317 181 317 q 151 317 119 283 q 87 249 77 249 q 58 249 58 270 l 58 275 q 58 310 96 348 q 135 386 178 386 z"},"D":{"x_min":0,"x_max":731,"ha":731,"o":"m 551 327 l 551 346 q 551 466 491 543 q 431 621 331 621 l 315 621 q 265 621 252 609 q 240 597 240 563 l 240 485 l 240 477 q 240 465 240 454 l 241 438 l 241 342 q 241 107 245 90 q 254 55 323 55 l 339 55 q 432 55 489 124 q 517 158 534 211 q 551 265 551 327 z m 676 334 q 676 263 650 197 q 598 68 465 21 q 406 0 320 0 l 307 0 l 295 0 l 258 0 l 234 1 l 209 1 q 57 1 57 22 q 57 35 86 50 q 115 65 123 99 q 130 133 130 336 q 130 539 123 573 q 115 607 97 619 q 59 644 59 651 q 59 666 84 670 q 110 675 243 675 l 293 675 l 318 675 q 414 675 477 652 q 600 607 650 487 q 676 421 676 348 z"},"^":{"x_min":0,"x_max":533,"ha":533,"o":"m 270 678 q 292 678 311 648 q 330 619 376 533 q 422 447 449 400 q 476 354 476 346 q 476 338 447 338 q 419 338 392 375 q 382 388 324 488 q 267 588 265 588 q 263 588 217 502 q 171 417 143 378 q 115 339 80 339 q 58 339 58 347 l 58 352 q 58 353 122 471 q 186 590 220 645 q 242 678 262 678 z"},"0":{"x_min":0,"x_max":554,"ha":554,"o":"m 390 298 l 390 340 q 390 526 327 585 q 304 607 275 607 q 219 607 188 538 q 157 469 157 326 l 158 318 l 158 302 l 159 270 q 159 167 193 105 q 227 43 273 43 l 280 43 q 306 43 327 63 q 390 122 390 298 z m 504 349 l 504 307 q 504 239 485 177 q 449 58 370 13 q 328 -11 279 -11 l 270 -11 q 170 -11 109 79 q 49 168 49 311 l 49 322 l 49 333 q 49 474 110 566 q 140 612 183 637 q 226 661 274 661 l 283 661 q 381 661 443 572 q 474 527 489 465 q 504 403 504 349 z"},"F":{"x_min":0,"x_max":581,"ha":581,"o":"m 415 247 q 409 247 398 255 l 390 263 q 374 281 372 282 q 349 298 307 298 q 266 298 253 278 q 240 258 240 199 q 240 92 271 50 q 293 21 293 18 q 293 5 239 5 l 222 5 q 129 5 92 12 q 55 19 55 35 q 55 42 83 60 q 110 77 118 97 q 125 117 125 308 q 125 500 118 543 q 112 586 97 606 q 92 613 76 625 q 61 638 61 644 q 61 658 82 664 q 104 671 215 671 l 250 672 q 286 673 306 673 l 398 673 q 505 673 527 656 q 548 639 548 556 q 548 530 538 530 q 529 530 502 556 q 475 582 438 597 q 400 611 339 611 q 278 611 260 579 q 236 535 236 447 q 236 416 245 405 q 260 385 303 385 q 346 385 375 406 q 419 439 423 439 l 432 435 q 447 420 447 333 q 447 247 415 247 z"},"`":{"x_min":0,"x_max":379,"ha":379,"o":"m 114 707 l 119 707 q 153 707 184 671 q 266 578 266 558 l 266 553 q 266 544 250 544 l 242 544 q 225 544 130 617 q 74 661 74 679 l 74 686 q 74 707 114 707 z"},"k":{"x_min":0,"x_max":555,"ha":555,"o":"m 535 22 q 535 3 481 3 q 388 3 368 18 q 356 25 344 66 q 332 106 294 157 q 255 208 230 208 l 223 203 q 206 185 206 145 q 206 104 219 72 q 231 40 231 34 q 231 10 106 10 q 53 10 53 30 q 53 38 61 48 q 70 59 76 70 q 83 81 88 114 q 94 147 94 346 q 94 545 87 575 q 81 605 74 614 q 68 623 56 636 q 43 650 43 657 q 43 665 53 670 q 82 688 151 688 q 187 688 192 666 q 193 661 193 527 q 193 392 201 343 q 208 293 228 293 q 254 293 291 339 q 329 386 329 422 q 329 440 354 447 q 367 451 413 451 q 488 451 488 431 q 488 422 444 392 q 400 362 367 328 q 334 294 334 268 q 334 241 439 113 q 464 83 499 58 q 535 32 535 22 z"},"u":{"x_min":0,"x_max":574,"ha":574,"o":"m 418 2 q 402 2 395 11 q 388 20 382 34 q 375 49 373 49 q 364 49 342 34 q 320 20 308 14 q 271 -4 232 -4 q 148 -4 109 63 q 87 102 87 261 q 87 353 80 375 q 73 397 61 406 q 32 427 32 430 l 32 438 q 32 458 138 458 q 169 458 177 433 q 186 408 186 273 q 186 138 198 108 q 210 79 229 68 q 249 56 277 56 q 304 56 330 73 q 356 89 370 116 q 384 144 384 233 q 384 323 375 353 q 367 382 357 401 q 346 419 346 428 q 346 461 459 461 q 479 461 483 449 q 487 438 487 385 l 486 358 q 485 345 485 338 q 485 331 484 303 l 483 276 q 482 248 482 188 q 482 127 491 104 q 499 81 511 71 q 536 51 536 44 q 536 28 500 15 q 465 2 418 2 z"},"]":{"x_min":0,"x_max":355,"ha":355,"o":"m 256 262 q 256 -90 250 -111 q 245 -133 230 -139 q 215 -145 183 -145 q 151 -145 139 -146 l 105 -147 l 83 -147 q 48 -147 48 -130 q 48 -114 108 -99 q 127 -94 136 -90 q 152 -81 161 -50 q 169 -18 169 280 q 169 577 160 608 q 152 638 135 648 q 129 652 89 663 q 49 675 49 691 q 49 707 83 707 l 94 707 q 116 706 117 706 l 163 705 q 215 705 230 699 q 246 694 251 673 q 256 652 256 287 z"},"U":{"x_min":0,"x_max":717,"ha":717,"o":"m 682 651 q 682 631 654 615 q 626 598 620 574 q 614 550 614 385 q 614 221 608 176 q 602 132 580 95 q 547 41 490 15 q 434 -11 372 -11 l 350 -11 q 273 -11 221 17 q 169 46 143 91 q 117 136 112 187 q 107 238 107 400 q 107 562 103 581 q 99 601 78 612 q 38 635 38 650 q 38 673 158 673 l 214 673 q 273 673 273 655 q 273 648 256 629 q 239 609 233 580 q 221 520 221 346 q 221 173 245 128 q 287 51 383 51 q 426 51 459 69 q 493 87 512 117 q 545 170 545 329 q 545 578 511 627 q 489 659 489 660 q 489 673 542 673 l 579 673 q 682 673 682 651 z"},"o":{"x_min":0,"x_max":544,"ha":544,"o":"m 393 219 l 393 231 q 393 313 359 370 q 344 396 321 410 q 298 425 278 425 l 264 425 q 220 425 188 378 q 156 332 156 270 l 155 258 l 154 241 l 154 234 l 155 229 l 155 217 q 156 211 156 205 q 156 144 196 85 q 227 41 275 41 l 280 41 l 285 42 q 334 42 364 94 q 393 146 393 219 z m 503 250 l 503 226 q 503 184 486 139 q 469 94 437 61 q 372 -9 281 -9 l 257 -9 q 213 -9 176 9 q 94 48 64 133 q 49 175 49 216 l 49 240 q 49 282 66 327 q 83 373 116 407 q 180 475 277 475 l 278 475 l 286 475 q 375 475 437 413 q 469 381 486 337 q 503 292 503 250 z"},"N":{"x_min":0,"x_max":750,"ha":750,"o":"m 616 8 q 579 8 519 76 q 499 98 350 307 q 200 517 191 517 q 182 517 182 323 q 182 130 208 75 q 210 70 224 51 q 237 33 237 28 q 237 2 125 2 l 102 2 q 43 2 43 25 l 51 37 l 83 55 q 104 71 111 102 q 118 133 118 333 q 118 534 109 564 q 100 594 74 616 q 47 639 47 650 q 47 668 109 668 q 170 668 196 658 q 222 648 247 623 q 273 598 416 396 q 559 194 568 194 q 577 194 577 345 q 577 496 568 548 q 559 601 547 619 l 526 639 q 518 647 518 657 q 518 669 560 669 l 582 669 q 676 669 695 654 l 701 646 q 701 633 677 603 q 653 573 647 539 q 641 505 641 331 l 640 259 l 639 236 q 639 212 639 189 l 639 142 q 639 43 636 31 q 630 8 616 8 z"},"+":{"x_min":0,"x_max":574,"ha":574,"o":"m 280 514 l 299 514 q 317 514 320 498 q 321 496 321 410 q 321 324 324 321 q 328 318 416 318 q 504 318 508 317 q 521 313 521 287 q 521 261 510 256 q 500 252 413 252 q 325 252 322 244 q 321 242 321 157 q 321 73 317 63 q 314 54 292 54 l 273 54 q 256 54 252 69 q 251 74 251 158 q 251 242 248 247 q 244 252 157 252 q 71 252 66 253 q 52 257 52 277 l 52 286 q 52 312 69 317 q 73 318 160 318 q 247 318 249 323 q 251 327 251 412 q 251 497 253 502 q 258 514 280 514 z"},"G":{"x_min":0,"x_max":723,"ha":723,"o":"m 464 290 q 464 307 568 307 q 673 307 673 280 q 673 273 657 257 q 641 241 635 220 q 629 199 625 131 q 622 63 609 46 q 596 30 554 23 q 513 16 467 4 q 420 -9 387 -9 l 367 -9 q 305 -9 244 15 q 184 38 137 87 q 46 182 46 326 l 46 348 q 46 408 71 471 q 96 535 141 582 q 236 681 375 681 q 415 681 473 669 q 531 657 574 657 q 620 657 620 535 q 620 503 604 503 q 595 503 559 540 q 524 576 481 597 q 438 619 386 619 q 332 619 294 598 q 170 532 170 342 l 170 341 q 170 339 170 337 q 170 275 188 223 q 225 117 307 75 q 342 57 395 57 q 448 57 476 87 q 504 118 504 172 q 504 226 477 268 q 464 287 464 290 z"},"q":{"x_min":0,"x_max":560,"ha":560,"o":"m 158 257 l 158 228 q 158 158 191 106 q 223 55 271 55 l 274 55 l 278 55 q 296 55 321 68 q 345 81 359 105 q 381 145 381 240 l 381 261 l 380 266 l 380 282 l 378 308 q 378 358 350 389 q 321 420 281 420 l 271 420 q 224 420 191 371 q 158 322 158 257 z m 535 -189 q 510 -203 382 -203 l 371 -203 q 330 -203 330 -186 q 330 -179 346 -163 q 362 -147 369 -128 q 376 -109 376 -72 q 376 27 349 27 q 348 27 310 15 q 271 2 236 2 q 160 2 105 66 q 50 129 50 232 q 50 334 112 403 q 139 434 177 451 q 215 469 254 469 l 266 469 q 290 469 337 457 q 385 444 393 444 q 401 444 421 452 q 441 460 450 460 q 483 460 483 382 q 483 371 481 333 q 479 296 479 219 l 481 72 l 482 24 l 482 13 l 483 -45 q 483 -102 490 -119 q 497 -136 519 -151 q 542 -166 542 -176 q 542 -186 535 -189 z"},"d":{"x_min":0,"x_max":569,"ha":569,"o":"m 376 229 l 376 245 q 376 333 356 370 q 344 391 320 405 q 295 418 271 418 l 267 418 l 262 418 q 216 418 186 373 q 156 328 156 250 l 156 221 q 156 144 187 98 q 217 53 268 53 l 272 53 q 327 53 356 101 q 376 135 376 229 z m 354 555 q 354 611 326 639 q 313 652 313 658 q 313 665 320 669 q 349 690 425 690 l 436 690 q 461 690 469 669 q 478 649 478 581 l 479 557 q 479 545 479 533 l 480 497 l 480 350 l 478 238 q 478 135 481 111 q 483 87 490 76 q 497 65 508 54 q 520 43 520 35 q 520 27 506 20 q 475 2 414 2 q 394 2 377 21 q 359 40 355 40 q 352 40 333 28 q 278 -6 233 -6 l 209 -6 q 184 -6 153 8 q 93 36 67 117 q 53 161 53 205 l 53 218 q 53 262 70 312 q 86 361 117 396 q 179 463 259 463 l 331 455 q 354 455 354 555 z"},"1":{"x_min":0,"x_max":517,"ha":517,"o":"m 411 19 q 411 0 245 0 l 224 0 l 183 0 q 121 0 121 21 q 121 27 158 54 q 195 82 205 113 q 215 145 215 317 q 215 490 200 525 q 189 550 149 558 q 109 565 109 575 q 109 587 137 599 q 254 649 288 649 l 296 649 q 311 649 318 634 q 325 620 325 570 l 324 549 q 324 538 324 528 l 322 485 l 321 442 l 321 376 l 321 366 l 321 279 l 321 257 l 321 235 l 323 172 q 323 121 337 96 q 351 70 381 51 q 411 31 411 19 z"},"5":{"x_min":0,"x_max":538,"ha":538,"o":"m 476 202 q 476 155 457 112 q 418 25 322 -8 q 279 -23 218 -23 q 157 -23 108 7 q 58 37 58 79 q 58 107 83 107 q 93 107 142 72 q 191 37 242 37 q 293 37 331 77 q 368 117 368 168 q 368 304 252 330 q 227 336 174 336 q 120 336 105 348 q 90 359 90 396 q 90 434 111 552 q 119 598 135 617 q 157 643 290 643 q 331 643 384 646 l 413 648 q 456 648 456 622 q 456 576 417 561 q 400 554 331 554 l 299 555 q 268 556 252 556 q 204 556 181 525 q 159 495 159 434 q 159 408 199 408 l 212 408 l 228 409 q 243 409 273 409 q 304 409 347 393 q 476 342 476 202 z"}}}
